<svg width="600" height="600" xmlns="http://www.w3.org/2000/svg">
 <g>
  <title>background</title>
  <rect x="-1" y="-1" width="602" height="602" id="canvas_background" fill="none"/>
 </g>

 <g>
  <title>Layer 1</title>
  <circle fill="#00D8FF" cx="299.529" cy="299.628" r="50.167" id="svg_2"/>
  <path fill="none" stroke="#00D8FF" stroke-width="24" stroke-miterlimit="10" d="m299.529,197.628c67.356,0 129.928,9.665 177.107,25.907c56.844,19.569 91.794,49.233 91.794,76.093c0,27.991 -37.041,59.503 -98.083,79.728c-46.151,15.291 -106.879,23.272 -170.818,23.272c-65.554,0 -127.63,-7.492 -174.29,-23.441c-59.046,-20.182 -94.611,-52.103 -94.611,-79.559c0,-26.642 33.37,-56.076 89.415,-75.616c47.355,-16.509 111.472,-26.384 179.486,-26.384z" id="svg_3"/>
  <path fill="none" stroke="#00D8FF" stroke-width="24" stroke-miterlimit="10" d="m210.736,248.922c33.649,-58.348 73.281,-107.724 110.92,-140.48c45.35,-39.466 88.507,-54.923 111.775,-41.505c24.248,13.983 33.042,61.814 20.067,124.796c-9.81,47.618 -33.234,104.212 -65.176,159.601c-32.749,56.788 -70.25,106.819 -107.377,139.272c-46.981,41.068 -92.4,55.929 -116.185,42.213c-23.079,-13.31 -31.906,-56.921 -20.834,-115.233c9.355,-49.27 32.832,-109.745 66.81,-168.664z" id="svg_4"/>
  <path fill="none" stroke="#00D8FF" stroke-width="24" stroke-miterlimit="10" d="m210.821,351.482c-33.746,-58.292 -56.731,-117.287 -66.312,-166.255c-11.544,-58.999 -3.382,-104.109 19.864,-117.566c24.224,-14.024 70.055,2.244 118.14,44.94c36.356,32.28 73.688,80.837 105.723,136.173c32.844,56.733 57.461,114.209 67.036,162.582c12.117,61.213 2.309,107.984 -21.453,121.74c-23.057,13.348 -65.249,-0.784 -110.239,-39.499c-38.013,-32.711 -78.682,-83.253 -112.759,-142.115z" id="svg_5"/>
 </g>
</svg>